#!OML:ASF H:\Male1\Project 1\Capture day 1\Session 1\Male1.ASF
:FULLY-SPECIFIED
:DEGREES
332
root -22.0599 14.8361 0.424225 903.038 57.1468 -896.365
lowerback 5.78988 -0.119436 -3.94986
upperback 4.76738 -0.0857237 -1.49899
thorax 1.68285 -0.0290071 0.67661
lowerneck -9.42588 -3.11347 1.00703
upperneck 17.1924 -4.98154 4.85868
head 6.90977 -1.78118 0.978646
rclavicle 8.74653e-015 -2.70347e-014
rhumerus -31.5276 8.2037 -92.174
rradius 31.1674
rwrist -12.9536
rhand -16.708 1.40682
rfingers 7.12502
rthumb 9.51712 -28.3583
lclavicle 8.74653e-015 -2.70347e-014
lhumerus -30.8508 7.69479 75.4649
lradius 19.8961
lwrist -4.66387
lhand -25.7432 17.6583
lfingers 7.12502
lthumb 0.793734 47.6365
rfemur -21.7255 0.00753383 26.7494
rtibia 48.2993
rfoot -30.7432 -19.9891
rtoes -14.4325
lfemur -4.96267 -11.353 -24.2021
ltibia 31.814
lfoot -39.1101 22.4936
ltoes 6.74998
333
root -22.1139 14.8317 0.4124 902.953 58.9153 -896.595
lowerback 5.61795 -0.117135 -4.04366
upperback 4.65012 -0.0935652 -1.52075
thorax 1.65751 -0.0386349 0.706885
lowerneck -9.42957 -2.79965 1.32148
upperneck 17.1823 -4.55533 4.55681
head 6.88368 -1.5857 0.867181
rclavicle 1.0138e-014 2.8625e-014
rhumerus -31.6278 7.66881 -91.9529
rradius 30.8606
rwrist -13.5197
rhand -16.8542 1.30035
rfingers 7.12502
rthumb 9.37598 -28.4711
lclavicle 1.0138e-014 2.8625e-014
lhumerus -30.3722 7.23565 75.7028
lradius 19.7441
lwrist -5.32988
lhand -25.3778 17.565
lfingers 7.12502
lthumb 1.14666 47.5417
rfemur -21.5215 -0.448743 26.6269
rtibia 48.3462
rfoot -31.5712 -19.9599
rtoes -11.2776
lfemur -4.97362 -11.4317 -24.8221
ltibia 31.7755
lfoot -40.4008 23.2545
ltoes 9.02666
334
root -22.1602 14.8243 0.401712 903.183 60.6461 -896.486
lowerback 5.36097 -0.0942722 -3.91219
upperback 4.53207 -0.0627548 -1.52921
thorax 1.67517 -0.0249027 0.623447
lowerneck -9.32133 -2.51611 1.74231
upperneck 17.1018 -4.17292 4.21644
head 6.8158 -1.41077 0.723204
rclavicle 2.5842e-015 -4.53229e-014
rhumerus -31.745 7.02393 -91.7583
rradius 30.5146
rwrist -13.794
rhand -17.216 1.16625
rfingers 7.12502
rthumb 9.02693 -28.6206
lclavicle 2.5842e-015 -4.53229e-014
lhumerus -29.9578 6.37202 76.056
lradius 19.8123
lwrist -5.52932
lhand -25.1227 17.3677
lfingers 7.12502
lthumb 1.39307 47.3429
rfemur -21.3197 -0.72325 26.6824
rtibia 48.2077
rfoot -32.8734 -22.5813
rtoes -16.6812
lfemur -5.04566 -11.3478 -25.1795
ltibia 31.7652
lfoot -41.5153 23.773
ltoes 11.4067
335
root -22.1978 14.8147 0.392421 903.202 62.3226 -896.522
lowerback 5.13525 -0.0625773 -3.87355
upperback 4.49154 -0.0162172 -1.55552
thorax 1.75645 -0.00447492 0.573
lowerneck -9.36778 -2.25078 2.13106
upperneck 17.153 -3.82677 3.9096
head 6.82249 -1.24563 0.589844
rclavicle -1.43125e-014 -7.15625e-015
rhumerus -31.8155 6.27946 -91.5104
rradius 30.2124
rwrist -13.9105
rhand -17.4566 1.12444
rfingers 7.12502
rthumb 8.79478 -28.6723
lclavicle -1.43125e-014 -7.15625e-015
lhumerus -29.4871 5.61737 76.391
lradius 19.9822
lwrist -5.74243
lhand -24.9944 16.8685
lfingers 7.12502
lthumb 1.51702 46.8429
rfemur -20.983 -0.784433 26.6667
rtibia 47.9168
rfoot -33.1619 -23.6216
rtoes -18.5123
lfemur -5.03553 -11.103 -25.5774
ltibia 31.7943
lfoot -42.6069 23.9803
ltoes 13.9365
336
root -22.2336 14.8104 0.395975 903.212 63.8443 -896.745
lowerback 4.89712 -0.0654447 -4.04761
upperback 4.39654 -0.0264131 -1.5503
thorax 1.79209 -0.0179089 0.675905
lowerneck -9.42697 -2.02234 2.38014
upperneck 17.2252 -3.52647 3.69803
head 6.84503 -1.10245 0.505913
rclavicle 1.88845e-014 -3.97569e-015
rhumerus -31.9091 5.60827 -91.2819
rradius 29.9658
rwrist -13.9486
rhand -17.5407 1.31876
rfingers 7.12502
rthumb 8.71358 -28.4814
lclavicle 1.88845e-014 -3.97569e-015
lhumerus -29.0326 4.67026 76.8876
lradius 20.3854
lwrist -5.43157
lhand -25.0044 16.6104
lfingers 7.12502
lthumb 1.50732 46.5848
rfemur -20.7488 -0.375521 26.603
rtibia 47.4542
rfoot -34.4411 -24.2025
rtoes -16.1008
lfemur -5.35183 -10.3816 -25.8105
ltibia 31.9356
lfoot -43.2488 23.9444
ltoes 15.1694
